<?xml version="1.0" encoding="UTF-8"?>
<!DOCTYPE svg PUBLIC "-//W3C//DTD SVG 1.1//EN" "http://www.w3.org/Graphics/SVG/1.1/DTD/svg11.dtd">
<svg xmlns="http://www.w3.org/2000/svg" version="1.1" width="16px" height="16px" style="shape-rendering:geometricPrecision; text-rendering:geometricPrecision; image-rendering:optimizeQuality; fill-rule:evenodd; clip-rule:evenodd" xmlns:xlink="http://www.w3.org/1999/xlink">
<g><path style="opacity:1" fill="#fbfcf7" d="M 8.5,-0.5 C 9.83333,-0.5 11.1667,-0.5 12.5,-0.5C 12.1788,1.04814 11.1788,1.71481 9.5,1.5C 9.16667,0.833333 8.83333,0.166667 8.5,-0.5 Z"/></g>
<g><path style="opacity:1" fill="#ebebe7" d="M -0.5,-0.5 C 2.5,-0.5 5.5,-0.5 8.5,-0.5C 8.83333,0.166667 9.16667,0.833333 9.5,1.5C 8.16667,1.5 6.83333,1.5 5.5,1.5C 3.43525,1.51715 1.43525,1.85048 -0.5,2.5C -0.5,1.5 -0.5,0.5 -0.5,-0.5 Z"/></g>
<g><path style="opacity:1" fill="#fbfaf0" d="M 12.5,-0.5 C 13.5,-0.5 14.5,-0.5 15.5,-0.5C 15.5,0.5 15.5,1.5 15.5,2.5C 13.8333,2.5 12.1667,2.5 10.5,2.5C 10.1667,2.5 9.83333,2.5 9.5,2.5C 9.5,2.16667 9.5,1.83333 9.5,1.5C 11.1788,1.71481 12.1788,1.04814 12.5,-0.5 Z"/></g>
<g><path style="opacity:1" fill="#b6ba9d" d="M 5.5,1.5 C 4.83333,2.5 4.16667,3.5 3.5,4.5C 2.16667,4.16667 0.833333,3.83333 -0.5,3.5C -0.5,3.16667 -0.5,2.83333 -0.5,2.5C 1.43525,1.85048 3.43525,1.51715 5.5,1.5 Z"/></g>
<g><path style="opacity:1" fill="#f8f4e8" d="M 10.5,2.5 C 12.1667,2.5 13.8333,2.5 15.5,2.5C 15.5,3.16667 15.5,3.83333 15.5,4.5C 13.7659,5.56205 12.0992,5.56205 10.5,4.5C 10.5,3.83333 10.5,3.16667 10.5,2.5 Z"/></g>
<g><path style="opacity:1" fill="#cca497" d="M 9.5,2.5 C 9.83333,2.5 10.1667,2.5 10.5,2.5C 10.5,3.16667 10.5,3.83333 10.5,4.5C 10.5,4.83333 10.5,5.16667 10.5,5.5C 9.83333,5.5 9.16667,5.5 8.5,5.5C 7.66175,5.15829 7.32842,4.49162 7.5,3.5C 8.49162,3.67158 9.15829,3.33825 9.5,2.5 Z"/></g>
<g><path style="opacity:1" fill="#e6e2da" d="M 10.5,4.5 C 12.0992,5.56205 13.7659,5.56205 15.5,4.5C 15.5,5.83333 15.5,7.16667 15.5,8.5C 14.1667,8.5 12.8333,8.5 11.5,8.5C 10.8902,7.60895 10.5569,6.60895 10.5,5.5C 10.5,5.16667 10.5,4.83333 10.5,4.5 Z"/></g>
<g><path style="opacity:1" fill="#8ca842" d="M -0.5,3.5 C 0.833333,3.83333 2.16667,4.16667 3.5,4.5C 3.5,5.16667 3.5,5.83333 3.5,6.5C 3.5,7.16667 3.5,7.83333 3.5,8.5C 2.53261,7.19376 1.19928,6.52709 -0.5,6.5C -0.5,5.5 -0.5,4.5 -0.5,3.5 Z"/></g>
<g><path style="opacity:1" fill="#a1786d" d="M 7.5,3.5 C 7.32842,4.49162 7.66175,5.15829 8.5,5.5C 8.19593,7.79568 7.19593,8.12901 5.5,6.5C 5.42702,4.97306 6.09368,3.97306 7.5,3.5 Z"/></g>
<g><path style="opacity:1" fill="#514e56" d="M 5.5,1.5 C 6.83333,1.5 8.16667,1.5 9.5,1.5C 9.5,1.83333 9.5,2.16667 9.5,2.5C 9.15829,3.33825 8.49162,3.67158 7.5,3.5C 6.09368,3.97306 5.42702,4.97306 5.5,6.5C 5.5,6.83333 5.5,7.16667 5.5,7.5C 5.16667,7.5 4.83333,7.5 4.5,7.5C 4.5,6.83333 4.16667,6.5 3.5,6.5C 3.5,5.83333 3.5,5.16667 3.5,4.5C 4.16667,3.5 4.83333,2.5 5.5,1.5 Z"/></g>
<g><path style="opacity:1" fill="#849b55" d="M -0.5,6.5 C 1.19928,6.52709 2.53261,7.19376 3.5,8.5C 3.16667,9.16667 2.83333,9.83333 2.5,10.5C 1.39105,10.4431 0.391047,10.1098 -0.5,9.5C -0.5,8.5 -0.5,7.5 -0.5,6.5 Z"/></g>
<g><path style="opacity:1" fill="#b98978" d="M 8.5,5.5 C 9.16667,5.5 9.83333,5.5 10.5,5.5C 10.5569,6.60895 10.8902,7.60895 11.5,8.5C 11.5,9.16667 11.5,9.83333 11.5,10.5C 10.596,11.209 10.2627,12.209 10.5,13.5C 9.22104,14.7152 8.22104,14.3818 7.5,12.5C 8.37644,12.6309 9.04311,12.2975 9.5,11.5C 8.13347,10.16 6.80014,8.82669 5.5,7.5C 5.5,7.16667 5.5,6.83333 5.5,6.5C 7.19593,8.12901 8.19593,7.79568 8.5,5.5 Z"/></g>
<g><path style="opacity:1" fill="#859b49" d="M 3.5,6.5 C 4.16667,6.5 4.5,6.83333 4.5,7.5C 4.83333,8.83333 5.16667,10.1667 5.5,11.5C 4.60895,10.8902 3.60895,10.5569 2.5,10.5C 2.83333,9.83333 3.16667,9.16667 3.5,8.5C 3.5,7.83333 3.5,7.16667 3.5,6.5 Z"/></g>
<g><path style="opacity:1" fill="#90a799" d="M 11.5,8.5 C 12.8333,8.5 14.1667,8.5 15.5,8.5C 15.5,9.16667 15.5,9.83333 15.5,10.5C 14.1667,10.5 12.8333,10.5 11.5,10.5C 11.5,9.83333 11.5,9.16667 11.5,8.5 Z"/></g>
<g><path style="opacity:1" fill="#967061" d="M 4.5,7.5 C 4.83333,7.5 5.16667,7.5 5.5,7.5C 6.80014,8.82669 8.13347,10.16 9.5,11.5C 9.04311,12.2975 8.37644,12.6309 7.5,12.5C 6.83333,12.1667 6.16667,11.8333 5.5,11.5C 5.16667,10.1667 4.83333,8.83333 4.5,7.5 Z"/></g>
<g><path style="opacity:1" fill="#809c56" d="M 2.5,10.5 C 3.60895,10.5569 4.60895,10.8902 5.5,11.5C 5.5,12.1667 5.16667,12.5 4.5,12.5C 3.60895,13.1098 2.60895,13.4431 1.5,13.5C 1.55688,12.391 1.89022,11.391 2.5,10.5 Z"/></g>
<g><path style="opacity:1" fill="#8fa272" d="M 11.5,10.5 C 12.8333,10.5 14.1667,10.5 15.5,10.5C 15.5,12.1667 15.5,13.8333 15.5,15.5C 15.1667,15.5 14.8333,15.5 14.5,15.5C 13.713,13.8958 12.3797,13.2291 10.5,13.5C 10.2627,12.209 10.596,11.209 11.5,10.5 Z"/></g>
<g><path style="opacity:1" fill="#829e50" d="M -0.5,9.5 C 0.391047,10.1098 1.39105,10.4431 2.5,10.5C 1.89022,11.391 1.55688,12.391 1.5,13.5C 1.16667,14.1667 0.833333,14.8333 0.5,15.5C 0.166667,15.5 -0.166667,15.5 -0.5,15.5C -0.5,13.5 -0.5,11.5 -0.5,9.5 Z"/></g>
<g><path style="opacity:1" fill="#9caec4" d="M 4.5,12.5 C 4.5,13.5 4.5,14.5 4.5,15.5C 3.16667,15.5 1.83333,15.5 0.5,15.5C 0.833333,14.8333 1.16667,14.1667 1.5,13.5C 2.60895,13.4431 3.60895,13.1098 4.5,12.5 Z"/></g>
<g><path style="opacity:1" fill="#97abc9" d="M 5.5,11.5 C 6.16667,11.8333 6.83333,12.1667 7.5,12.5C 8.22104,14.3818 9.22104,14.7152 10.5,13.5C 12.3797,13.2291 13.713,13.8958 14.5,15.5C 11.1667,15.5 7.83333,15.5 4.5,15.5C 4.5,14.5 4.5,13.5 4.5,12.5C 5.16667,12.5 5.5,12.1667 5.5,11.5 Z"/></g>
</svg>
